<svg width="16" height="16" viewBox="0 0 16 16" fill="none" xmlns="http://www.w3.org/2000/svg">
<g id="action-settings">
<path id="Icon" d="M8.54999 16H7.43999C6.67999 16 6.00999 15.46 5.85999 14.72L5.64999 13.71L4.26999 12.9L3.27999 13.28C2.49999 13.59 1.61999 13.26 1.23999 12.51L0.659989 11.37C0.309989 10.67 0.509988 9.83001 1.13999 9.37001L1.89999 8.81001V7.21001L1.13999 6.65001C0.509988 6.19001 0.309989 5.34001 0.659989 4.65001L1.23999 3.51001C1.61999 2.77001 2.51999 2.44001 3.28999 2.75001L4.23999 3.14001L5.63999 2.31001L5.84999 1.29001C5.99999 0.55001 6.66999 0.0100098 7.42999 0.0100098H8.53999C9.29999 0.0100098 9.96999 0.55001 10.12 1.29001L10.33 2.31001L11.71 3.14001L12.68 2.75001C13.45 2.43001 14.36 2.77001 14.73 3.51001L15.31 4.65001C15.66 5.35001 15.46 6.19001 14.83 6.65001L14.07 7.21001V8.81001L14.83 9.37001C15.46 9.84001 15.66 10.68 15.31 11.37L14.73 12.51C14.35 13.25 13.48 13.58 12.7 13.28L11.74 12.9L10.34 13.72L10.13 14.73C9.97999 15.47 9.30999 16.01 8.54999 16.01V16ZM4.25999 11.29C4.54999 11.29 4.83999 11.37 5.08999 11.51L6.46999 12.32C6.85999 12.55 7.13999 12.94 7.22999 13.38L7.43999 14.39H8.55999L8.77999 13.38C8.86999 12.94 9.14999 12.55 9.53999 12.32L10.92 11.51C11.35 11.25 11.87 11.21 12.34 11.4L13.31 11.78L13.92 10.63L13.16 10.08C12.75 9.78001 12.51 9.30001 12.51 8.80001V7.20001C12.51 6.70001 12.75 6.22001 13.16 5.92001L13.92 5.36001L13.34 4.23001L12.36 4.61001C11.89 4.80001 11.35 4.76001 10.91 4.50001L9.52999 3.67001C9.14999 3.44001 8.87999 3.06001 8.78999 2.62001L8.57999 1.60001H7.45999H7.44999L7.23999 2.62001C7.14999 3.06001 6.87999 3.44001 6.49999 3.67001L5.11999 4.50001C4.68999 4.76001 4.13999 4.81001 3.66999 4.61001L2.71999 4.22001L2.11999 5.36001L2.87999 5.91001C3.28999 6.21001 3.52999 6.69001 3.52999 7.19001V8.79001C3.52999 9.29001 3.28999 9.77001 2.87999 10.07L2.11999 10.63L2.69999 11.76L3.68999 11.38C3.87999 11.31 4.07999 11.27 4.27999 11.27L4.25999 11.29ZM7.99999 11C6.34999 11 4.99999 9.65001 4.99999 8.00001C4.99999 6.35001 6.34999 5.00001 7.99999 5.00001C9.64999 5.00001 11 6.35001 11 8.00001C11 9.65001 9.64999 11 7.99999 11ZM7.99999 6.60001C7.22999 6.60001 6.59999 7.23001 6.59999 8.00001C6.59999 8.77001 7.22999 9.40001 7.99999 9.40001C8.76999 9.40001 9.39999 8.77001 9.39999 8.00001C9.39999 7.23001 8.76999 6.60001 7.99999 6.60001Z" fill="#1D2D3E"/>
</g>
</svg>
