<svg width="16" height="16" viewBox="0 0 16 16" fill="none" xmlns="http://www.w3.org/2000/svg">
<g id="cart-full">
<path id="Icon" d="M12.5 16C11.67 16 11 15.33 11 14.5C11 13.67 11.67 13 12.5 13C13.33 13 14 13.67 14 14.5C14 15.33 13.33 16 12.5 16ZM4.5 16C3.67 16 3 15.33 3 14.5C3 13.67 3.67 13 4.5 13C5.33 13 6 13.67 6 14.5C6 15.33 5.33 16 4.5 16ZM13.2 12H3.8C3.52 12 3.26 11.86 3.12 11.62C2.97 11.38 2.96 11.09 3.09 10.84L4.79 7.51L1.99 1.6H0.799999C0.359999 1.6 0 1.24 0 0.8C0 0.36 0.359999 0 0.799999 0H2.49C2.8 0 3.08 0.18 3.21 0.46L3.91 1.93H14.39C14.97 1.93 15.49 2.23 15.78 2.73C16.08 3.26 16.08 3.92 15.76 4.46L13.19 8.16C13.04 8.38 12.8 8.5 12.53 8.5H6.07L5.1 10.39H13.19C13.63 10.39 13.99 10.75 13.99 11.19C13.99 11.63 13.63 11.99 13.19 11.99L13.2 12ZM6.27 6.91H12.11L14.41 3.6C14.41 3.6 14.39 3.53 14.39 3.52H4.67L6.27 6.9V6.91Z" fill="#1D2D3E"/>
</g>
</svg>
