<svg width="16" height="16" viewBox="0 0 16 16" fill="none" xmlns="http://www.w3.org/2000/svg">
<g id="search">
<path id="Icon" d="M14.2 15C14 15 13.79 14.92 13.63 14.77L10.65 11.79C9.63999 12.55 8.37999 13 6.98999 13C3.62999 13 0.98999 10.36 0.98999 7C0.98999 3.64 3.63999 1 6.99999 1C10.36 1 13 3.64 13 7C13 8.39 12.55 9.65 11.79 10.66L14.77 13.64C14.93 13.8 15 14 15 14.21C15 14.42 14.92 14.62 14.77 14.78C14.61 14.94 14.41 15.01 14.2 15.01V15ZM6.99999 2.6C4.52999 2.6 2.59999 4.53 2.59999 7C2.59999 9.47 4.52999 11.4 6.99999 11.4C9.46999 11.4 11.4 9.47 11.4 7C11.4 4.53 9.46999 2.6 6.99999 2.6Z" fill="#1D2D3E"/>
</g>
</svg>
