<svg width="16" height="16" viewBox="0 0 16 16" fill="none" xmlns="http://www.w3.org/2000/svg">
<g id="person-placeholder">
<path id="Icon" d="M13.2 15H2.8C2.36 15 2 14.64 2 14.2V13.2C2 10.89 3.36 8.88998 5.31 7.95998C4.5 7.22998 4 6.16998 4 4.99998C4 3.82998 4.52 2.69998 5.42 1.93998C6.33 1.17998 7.53 0.859983 8.71 1.05998C10.34 1.34998 11.66 2.67998 11.93 4.27998C12.13 5.46998 11.81 6.66998 11.05 7.56998C10.93 7.70998 10.81 7.83998 10.68 7.94998C12.64 8.87998 13.99 10.88 13.99 13.19V14.19C13.99 14.63 13.63 14.99 13.19 14.99L13.2 15ZM3.6 13.4H12.4V13.2C12.4 10.88 10.52 8.99998 8.2 8.99998H7.8C5.48 8.99998 3.6 10.88 3.6 13.2V13.4ZM8 2.59998C7.43 2.59998 6.89 2.78998 6.45 3.15998C5.91 3.61998 5.6 4.28998 5.6 4.99998C5.6 6.31998 6.68 7.39998 8 7.39998C8.71 7.39998 9.38 7.08998 9.84 6.54998C10.3 5.99998 10.49 5.28998 10.37 4.55998C10.21 3.59998 9.42 2.81998 8.45 2.63998C8.3 2.60998 8.16 2.59998 8.01 2.59998H8Z" fill="#1D2D3E"/>
</g>
</svg>
