<svg width="16" height="16" viewBox="0 0 16 16" fill="none" xmlns="http://www.w3.org/2000/svg">
<path d="M8 15C7.6 15 7.21 14.84 6.92 14.55L1.46 9.41999C0.509999 8.46999 0 7.23999 0 5.91999C0 4.59999 0.520001 3.36999 1.45 2.42999C2.38 1.49999 3.6 0.98999 4.93 0.98999C6.09 0.98999 7.15 1.40999 8 2.17999C8.85 1.40999 9.91 0.98999 11.07 0.98999C13.79 0.98999 16 3.19999 16 5.91999C16 7.22999 15.49 8.46999 14.56 9.39999L9.06 14.57C8.79 14.84 8.35 15 7.99 15H8ZM4.92 2.59999C4.04 2.59999 3.21 2.93999 2.58 3.56999C1.94 4.19999 1.6 5.03999 1.6 5.92999C1.6 6.81999 1.94 7.64999 2.57 8.27999L8.04 13.41L13.45 8.25999C14.06 7.64999 14.4 6.81999 14.4 5.92999C14.4 4.09999 12.91 2.59999 11.07 2.59999C9.85 2.59999 9.07 3.27999 8.64 3.85999L8 4.69999L7.36 3.85999C6.93 3.28999 6.15 2.59999 4.93 2.59999H4.92Z" fill="#1D2D3E"/>
</svg>
